<svg xmlns="http://www.w3.org/2000/svg" viewBox="0 0 512 512" width="1em" height="1em" fill="currentColor" style="flex:none;line-height:1"><path d="M0 0 C1.55925771 2.42385567 2.88462562 4.75681701 4.1875 7.3125 C9.20080104 16.67206035 14.51828397 25.39154641 23 32 C23.80179687 32.80953125 24.60359375 33.6190625 25.4296875 34.453125 C46.06448718 54.89976542 75.10183307 62.24376648 103.25 62.25097656 C112.2263404 62.17439455 120.34619084 61.5272186 129 59 C129.98871094 58.73316406 130.97742188 58.46632813 131.99609375 58.19140625 C148.63453301 53.21976105 169.49910879 43.12188818 180 29 C180.76054687 28.26136719 181.52109375 27.52273438 182.3046875 26.76171875 C185.19022091 23.80509249 187.56093705 20.74094353 189.9375 17.375 C190.3691748 16.76833496 190.80084961 16.16166992 191.24560547 15.53662109 C194.94128426 10.25648742 198.1076482 4.76118854 201 -1 C205.21507854 -0.34993531 208.69580572 1.07277667 212.56640625 2.84375 C213.19408401 3.12887955 213.82176178 3.41400909 214.46846008 3.70777893 C216.50232496 4.6331141 218.53261818 5.56596299 220.5625 6.5 C223.35745102 7.78130834 226.15326069 9.06073467 228.94921875 10.33984375 C229.63933044 10.65626328 230.32944214 10.9726828 231.04046631 11.2986908 C235.15459377 13.17901142 239.28879792 14.99560926 243.45703125 16.75390625 C244.85103149 17.34945313 244.85103149 17.34945313 246.27319336 17.95703125 C247.96685443 18.67664252 249.66671877 19.38187996 251.37329102 20.0703125 C253.6171875 21.03515625 253.6171875 21.03515625 257 23 C257.98267764 25.77296477 258.23753937 27.33117965 257.24658203 30.12133789 C256.83778809 30.81477295 256.42899414 31.50820801 256.0078125 32.22265625 C255.55470703 33.00237793 255.10160156 33.78209961 254.63476562 34.58544922 C254.13654297 35.40287598 253.63832031 36.22030273 253.125 37.0625 C252.61904297 37.91086426 252.11308594 38.75922852 251.59179688 39.63330078 C247.46906812 46.44617487 243.03893599 52.82516827 238 59 C237.36626465 59.78383057 237.36626465 59.78383057 236.71972656 60.58349609 C207.11557407 97.0534765 166.12039525 121.16888856 119.0246582 126.12280273 C114.68675561 126.50840237 110.34960078 126.78838234 106 127 C104.92363281 127.05929687 103.84726562 127.11859375 102.73828125 127.1796875 C99.80246487 127.25507223 96.93296987 127.16430225 94 127 C92.86522217 126.9383667 92.86522217 126.9383667 91.70751953 126.87548828 C55.58237644 124.73438436 21.36066219 112.64830186 -7 90 C-7.89847656 89.30519531 -8.79695313 88.61039062 -9.72265625 87.89453125 C-22.18954751 78.04658405 -32.55449054 66.7201652 -42 54 C-42.62261719 53.18402344 -43.24523437 52.36804688 -43.88671875 51.52734375 C-47.85762308 46.13098658 -51.19231468 40.37980042 -54.5 34.5625 C-54.95834229 33.76811523 -55.41668457 32.97373047 -55.88891602 32.15527344 C-56.30713623 31.40407227 -56.72535645 30.65287109 -57.15625 29.87890625 C-57.53587891 29.2041626 -57.91550781 28.52941895 -58.30664062 27.83422852 C-59 26 -59 26 -58 23 C-55.72917398 21.77422146 -53.53782397 20.73943522 -51.16796875 19.7421875 C-50.11808022 19.28496811 -50.11808022 19.28496811 -49.04698181 18.81851196 C-46.76475085 17.82713547 -44.47641545 16.85083184 -42.1875 15.875 C-39.84856955 14.8661382 -37.51096527 13.85424639 -35.17340088 12.84222412 C-33.62396767 12.17182639 -32.07395917 11.50275669 -30.52337646 10.83502197 C-26.13162257 8.94040809 -21.76948051 6.99688799 -17.43359375 4.9765625 C-16.51618408 4.55004395 -15.59877441 4.12352539 -14.65356445 3.68408203 C-13.01131132 2.91504392 -11.3728575 2.13782026 -9.73901367 1.35107422 C-3.62439133 -1.4890622 -3.62439133 -1.4890622 0 0 Z"  transform="translate(156,304)"/><path d="M0 0 C2.93491783 -0.07536166 5.80619371 0.01815932 8.73828125 0.1796875 C9.47353027 0.21545898 10.2087793 0.25123047 10.96630859 0.28808594 C46.99802747 2.21446466 81.71413162 14.3169247 109.73828125 37.1796875 C111.12080078 38.25669922 111.12080078 38.25669922 112.53125 39.35546875 C124.97596382 49.17835253 135.31241951 60.48598167 144.73828125 73.1796875 C145.36089844 73.99566406 145.98351562 74.81164062 146.625 75.65234375 C167.3372836 103.79980608 177.73828125 139.42019311 177.73828125 174.1796875 C156.61828125 174.1796875 135.49828125 174.1796875 113.73828125 174.1796875 C113.07828125 167.9096875 112.41828125 161.6396875 111.73828125 155.1796875 C107.43081077 134.28047886 97.58279447 108.32827619 79.73828125 95.1796875 C78.990625 94.4165625 78.24296875 93.6534375 77.47265625 92.8671875 C55.47338939 71.24505093 25.47109602 64.70703749 -4.2890625 64.9609375 C-11.94105921 65.12411483 -18.88992035 66.02686142 -26.26171875 68.1796875 C-27.25042969 68.44652344 -28.23914063 68.71335937 -29.2578125 68.98828125 C-45.89625176 73.95992645 -66.76082754 84.05779932 -77.26171875 98.1796875 C-78.02613281 98.92863281 -78.79054688 99.67757812 -79.578125 100.44921875 C-99.07746055 120.28915405 -106.19127681 147.26394233 -108.26171875 174.1796875 C-129.38171875 174.1796875 -150.50171875 174.1796875 -172.26171875 174.1796875 C-171.09340095 151.98164933 -171.09340095 151.98164933 -169.57421875 144.2421875 C-169.40124268 143.33452637 -169.2282666 142.42686523 -169.05004883 141.49169922 C-163.63400787 114.3432349 -152.70778838 89.76155327 -135.26171875 68.1796875 C-134.83777832 67.6542334 -134.41383789 67.1287793 -133.97705078 66.58740234 C-104.37099376 30.12338399 -63.37868221 6.01043795 -16.28637695 1.05688477 C-10.86275666 0.57477481 -5.43562319 0.29944751 0 0 Z" transform="translate(253.26171875,80.8203125)"/></svg>
